<?xml version="1.0" encoding="UTF-8"?>
<svg id="Layer_1" data-name="Layer 1" xmlns="http://www.w3.org/2000/svg" xmlns:xlink="http://www.w3.org/1999/xlink" viewBox="0 0 1455.88 1022.93">
  <defs>
    <style>
      .cls-1 {
        fill: url(#linear-gradient);
      }

      .cls-1, .cls-2, .cls-3, .cls-4, .cls-5, .cls-6, .cls-7, .cls-8 {
        stroke-width: 0px;
      }

      .cls-2 {
        fill: #1468a9;
      }

      .cls-9 {
        clip-path: url(#clippath-2);
      }

      .cls-3 {
        fill: #61c3b2;
      }

      .cls-4 {
        fill: none;
      }

      .cls-5 {
        fill: #38aad2;
      }

      .cls-10 {
        clip-path: url(#clippath-1);
      }

      .cls-6 {
        fill: url(#linear-gradient-2);
      }

      .cls-7 {
        fill: url(#linear-gradient-3);
      }

      .cls-11 {
        clip-path: url(#clippath);
      }

      .cls-12 {
        clip-path: url(#clippath-3);
      }

      .cls-8 {
        fill: url(#linear-gradient-4);
      }
    </style>
    <clipPath id="clippath">
      <path class="cls-4" d="M547.24,481.63c-19.43,3.43-50.3,25.15-50.87,31.44-.57,6.29,21.72,22.29,21.72,22.29,0,0,60.59,80.02,78.88,126.89,18.29,46.87,66.3,109.17,177.19,92.59,0,0-69.4-37.8-99.45-114.05-30.05-76.26-54.87-126-62.3-131.15-6.98-4.83-41.18-28.31-61.41-28.31-1.31,0-2.56.1-3.75.3"/>
    </clipPath>
    <linearGradient id="linear-gradient" x1="-223.9" y1="1052.82" x2="-221.53" y2="1052.82" gradientTransform="translate(26843.6 -123265.32) scale(117.68)" gradientUnits="userSpaceOnUse">
      <stop offset="0" stop-color="#28597a"/>
      <stop offset="1" stop-color="#36acd2"/>
    </linearGradient>
    <clipPath id="clippath-1">
      <path class="cls-4" d="M1235.41,586.6l64.19-36.32c12.17-6.89,27.63-1.81,33.33,10.96,4.99,11.14.7,24.25-9.91,30.3l-87.62,49.93v-54.87ZM1245.83,448.92l-65.29,33.66-5.72,193.19-59.44,34.29-21.48-177.93-101.87,61.5h0s43.34,307.33,43.34,307.33l347.97-198.96c45.55-26.04,72.38-74.03,72.56-124.53v-1.02c-.04-12.9-1.83-25.96-5.49-38.84-18.32-64.53-76.82-104.77-138.71-104.77-22.08,0-44.58,5.12-65.85,16.08"/>
    </clipPath>
    <linearGradient id="linear-gradient-2" x1="-223.4" y1="1052.79" x2="-221.04" y2="1052.79" gradientTransform="translate(44890.35 -206203.54) scale(196.5)" xlink:href="#linear-gradient"/>
    <clipPath id="clippath-2">
      <path class="cls-4" d="M185.3,553.08s73.29,92.59,92.73,168.04c19.44,75.45,24.01,104.03,41.15,114.31,17.15,10.29,86.88-113.17,86.88-113.17l3.43-106.31-8-37.72-39.71-93.87s-6.72-35.04-70.03-38.74c-1.04-.06-2.07-.09-3.09-.09-61.63,0-103.36,107.55-103.36,107.55"/>
    </clipPath>
    <linearGradient id="linear-gradient-3" x1="-226.47" y1="1051.79" x2="-224.11" y2="1051.79" gradientTransform="translate(188585.9 40911.46) rotate(90) scale(179.02)" xlink:href="#linear-gradient"/>
    <clipPath id="clippath-3">
      <path class="cls-4" d="M683.27,198.51v353.8s-3.43,109.74,92.6,160.04c96.02,50.3,149.75,43.44,206.91,16,57.15-27.44,126.88-73.16,126.88-73.16l-15.77-123.05-147.7,89.16s-27.43-62.13,22.86-87.28c50.3-25.15,125.75-53.73,113.17-140.61-12.58-86.88-13.72-91.45-13.72-91.45,0,0-2.28,49.16-76.59,86.88-74.31,37.72-157.75,73.16-147.46,166.9,0,0,3.43,54.91,43.44,80.04,0,0-84.59,4.18-84.59-75.08V127.63l-120.03,70.88Z"/>
    </clipPath>
    <linearGradient id="linear-gradient-4" x1="-224.14" y1="1052.11" x2="-221.78" y2="1052.11" gradientTransform="translate(41169.05 -189598.75) scale(180.63)" xlink:href="#linear-gradient"/>
  </defs>
  <g class="cls-11">
    <rect class="cls-1" x="495.8" y="481.33" width="278.35" height="290.09"/>
  </g>
  <g class="cls-10">
    <rect class="cls-6" x="992.02" y="432.84" width="463.86" height="468.12"/>
  </g>
  <path class="cls-5" d="M699.64,147.41c-5.63,0-11.11-2.91-14.15-8.13-4.55-7.81-1.91-17.83,5.9-22.37l89.25-49.41c7.81-4.55,17.83-1.91,22.38,5.9,4.55,7.81,1.91,17.82-5.9,22.37l-89.25,49.41c-2.59,1.51-5.42,2.23-8.22,2.23"/>
  <path class="cls-5" d="M699.64,82.14c-5.63,0-11.11-2.91-14.15-8.13-4.55-7.81-1.91-17.83,5.9-22.37L780.63,2.23c7.81-4.55,17.83-1.91,22.38,5.9,4.55,7.81,1.91,17.83-5.9,22.37l-89.25,49.41c-2.59,1.51-5.42,2.23-8.22,2.23"/>
  <path class="cls-3" d="M645.76,848.41v65.2h-30.54v-10.12c-5.12,3.25-10.62,5.75-16.49,7.5-5.87,1.75-11.99,2.62-18.36,2.62-8.99,0-17.49-1.72-25.48-5.15-8-3.43-14.96-8.09-20.89-13.96-5.93-5.87-10.62-12.8-14.05-20.79-3.44-7.99-5.15-16.49-5.15-25.48s1.71-17.49,5.15-25.48c3.43-7.99,8.12-14.95,14.05-20.89,5.93-5.93,12.89-10.61,20.89-14.05,7.99-3.43,16.49-5.15,25.48-5.15s17.49,1.72,25.48,5.15c7.99,3.44,14.92,8.12,20.79,14.05,5.87,5.93,10.52,12.9,13.96,20.89,3.44,8,5.15,16.49,5.15,25.48v.19ZM580.38,883.07c4.74,0,9.24-.9,13.49-2.72,4.24-1.81,7.96-4.31,11.15-7.49,3.18-3.18,5.68-6.87,7.49-11.05,1.81-4.18,2.72-8.71,2.72-13.58s-.91-9.43-2.72-13.68c-1.81-4.24-4.31-7.96-7.49-11.15-3.19-3.18-6.87-5.68-11.05-7.5-4.19-1.81-8.71-2.71-13.58-2.71s-9.4.91-13.58,2.71c-4.18,1.81-7.87,4.31-11.05,7.5-3.18,3.19-5.68,6.9-7.49,11.15-1.81,4.25-2.72,8.81-2.72,13.68s.9,9.24,2.72,13.49c1.81,4.25,4.31,7.96,7.49,11.15,3.18,3.18,6.87,5.68,11.05,7.49,4.18,1.81,8.71,2.72,13.58,2.72"/>
  <path class="cls-3" d="M784.02,848.41v65.2h-30.54v-10.12c-5.12,3.25-10.62,5.75-16.49,7.5-5.87,1.75-11.99,2.62-18.36,2.62-8.99,0-17.49-1.72-25.48-5.15-8-3.43-14.96-8.09-20.89-13.96-5.93-5.87-10.62-12.8-14.05-20.79-3.44-7.99-5.15-16.49-5.15-25.48s1.71-17.49,5.15-25.48c3.43-7.99,8.12-14.95,14.05-20.89,5.93-5.93,12.89-10.61,20.89-14.05,7.99-3.43,16.49-5.15,25.48-5.15s17.49,1.72,25.48,5.15c7.99,3.44,14.92,8.12,20.79,14.05,5.87,5.93,10.52,12.9,13.96,20.89,3.44,8,5.15,16.49,5.15,25.48v.19ZM718.63,883.07c4.74,0,9.24-.9,13.49-2.72,4.24-1.81,7.96-4.31,11.15-7.49,3.19-3.18,5.68-6.87,7.49-11.05,1.81-4.18,2.72-8.71,2.72-13.58s-.91-9.43-2.72-13.68c-1.81-4.24-4.31-7.96-7.49-11.15-3.19-3.18-6.87-5.68-11.05-7.5-4.19-1.81-8.71-2.71-13.58-2.71s-9.4.91-13.58,2.71c-4.19,1.81-7.87,4.31-11.05,7.5-3.18,3.19-5.68,6.9-7.49,11.15-1.81,4.25-2.72,8.81-2.72,13.68s.9,9.24,2.72,13.49c1.81,4.25,4.31,7.96,7.49,11.15,3.18,3.18,6.87,5.68,11.05,7.49,4.18,1.81,8.71,2.72,13.58,2.72"/>
  <path class="cls-3" d="M847.9,782.47c7.87,0,15.24,1.5,22.11,4.49,6.87,3,12.86,7.06,17.99,12.18,5.12,5.12,9.15,11.12,12.08,17.99,2.93,6.87,4.4,14.24,4.4,22.11v50.38l-30.54,18.16v-68.54c0-3.62-.68-7.03-2.06-10.21-1.37-3.18-3.22-5.96-5.53-8.33s-5.06-4.24-8.24-5.62c-3.19-1.37-6.59-2.06-10.21-2.06s-7.03.68-10.21,2.06c-3.18,1.38-5.96,3.25-8.34,5.62-2.37,2.37-4.25,5.15-5.62,8.33-1.37,3.19-2.06,6.59-2.06,10.21v74.19h-30.54v-109.04h-17.42l12.93-21.92h35.03v6.56c4-2.12,8.18-3.75,12.55-4.87,4.37-1.12,8.93-1.69,13.68-1.69"/>
  <path class="cls-2" d="M504.69,954.36v34c0,.76.22,1.32.66,1.7.38.44.88.66,1.51.66h2.64v9.63h-5.95c-2.9,0-5.51-1.17-7.84-3.5-3.59,2.96-7.59,4.44-11.99,4.44-4.97,0-9.25-1.57-12.84-4.72-4.79-4.47-7.18-10.45-7.18-17.94,0-6.86,2.2-12.56,6.61-17.09,4.03-4.09,8.97-6.14,14.83-6.14,3.27,0,6.55.69,9.82,2.08l4.06-3.12h5.67ZM493.17,966.55c-2.2-.82-4.31-1.23-6.33-1.23-3.4,0-6.2,1.24-8.4,3.73-2.2,2.49-3.31,5.71-3.31,9.68s.99,7.15,2.98,9.54c1.98,2.39,4.64,3.59,7.98,3.59,2.27,0,4.63-.5,7.08-1.51v-23.8ZM484.2,936.14c1.7,0,3.15.6,4.34,1.79,1.19,1.2,1.79,2.64,1.79,4.35s-.6,3.05-1.79,4.25c-1.2,1.2-2.64,1.79-4.34,1.79s-3.15-.6-4.34-1.79c-1.2-1.2-1.79-2.61-1.79-4.25s.6-3.15,1.79-4.35c1.19-1.19,2.64-1.79,4.34-1.79M498.55,936.14c1.7,0,3.15.6,4.34,1.79,1.19,1.2,1.79,2.64,1.79,4.35s-.6,3.05-1.79,4.25c-1.2,1.2-2.64,1.79-4.34,1.79s-3.05-.6-4.25-1.79c-1.19-1.2-1.79-2.61-1.79-4.25s.6-3.15,1.79-4.35c1.2-1.19,2.61-1.79,4.25-1.79M526.32,1000.36h-17.47v-9.63h17.47v9.63ZM543.13,1000.36h-17.47v-9.63h17.47v9.63ZM559.94,1000.36h-17.47v-9.63h17.47v9.63ZM576.74,1000.36h-17.47v-9.63h17.47v9.63ZM604.51,956.91v33.81h4.82v9.63h-3.31l-3.49-3.87h-.19c-2.14,2.58-4.82,3.87-8.03,3.87h-18.23v-9.63h14.26c.88,0,1.51-.25,1.89-.76.57-.5.85-1.13.85-1.89v-31.17h11.43ZM584.02,1007.25c1.7,0,3.15.6,4.34,1.79,1.19,1.19,1.79,2.64,1.79,4.34s-.6,3.15-1.79,4.34c-1.2,1.2-2.64,1.8-4.34,1.8s-3.15-.6-4.35-1.8c-1.2-1.2-1.79-2.64-1.79-4.34s.6-3.15,1.79-4.34c1.2-1.2,2.64-1.79,4.35-1.79M598.37,1007.25c1.7,0,3.15.6,4.34,1.79,1.2,1.19,1.79,2.64,1.79,4.34s-.6,3.15-1.79,4.34c-1.19,1.2-2.64,1.8-4.34,1.8s-3.05-.6-4.25-1.8c-1.2-1.2-1.79-2.64-1.79-4.34s.6-3.15,1.79-4.34c1.19-1.2,2.61-1.79,4.25-1.79M708.86,956.91v33.81h4.82v9.63h-3.68l-3.12-3.87h-.19c-2.14,2.58-4.82,3.87-8.03,3.87h-20.21l-3.12-3.87h-.28c-2.08,2.58-4.72,3.87-7.93,3.87h-20.3l-3.12-3.87h-.28c-2.08,2.58-4.72,3.87-7.93,3.87h-26.82v-9.63h23.14c1.57,0,2.36-.79,2.36-2.36v-20.59h11.52v20.02c0,1.32-.03,2.3-.1,2.93h17.85c1.57,0,2.36-.79,2.36-2.36v-26.06h11.52v25.21c0,.38-.03.94-.09,1.7v1.51h17.75c1.57,0,2.36-.79,2.36-2.36v-31.45h11.52ZM731.81,990.72c-2.84-3.78-4.25-8.34-4.25-13.69,0-4.85,1.23-9.03,3.68-12.56,3.97-5.79,9.7-8.69,17.19-8.69,5.67,0,10.42,1.76,14.26,5.29,4.47,4.09,6.7,9.41,6.7,15.96,0,5.16-1.42,9.73-4.25,13.69h6.52v9.63h-14.16c-4.09,0-7.05-.41-8.88-1.23h-.47c-1.76.82-4.72,1.23-8.88,1.23h-26.25v-9.63h18.8ZM748.43,990.63c2.83-.31,5.12-1.62,6.85-3.92,1.73-2.3,2.6-5.24,2.6-8.83,0-3.78-.85-6.8-2.55-9.06-1.7-2.27-4-3.4-6.89-3.4s-5.12,1.13-6.85,3.4c-1.73,2.27-2.6,5.29-2.6,9.06s.86,6.53,2.6,8.83c1.73,2.3,4.01,3.6,6.85,3.92M748.62,936.14c1.64,0,3.05.6,4.25,1.79,1.19,1.2,1.79,2.64,1.79,4.35s-.6,3.05-1.79,4.25c-1.2,1.2-2.62,1.79-4.25,1.79s-3.15-.6-4.34-1.79c-1.2-1.2-1.79-2.61-1.79-4.25s.6-3.15,1.79-4.35c1.19-1.19,2.64-1.79,4.34-1.79M799.43,956.91v33.05c0,2.46-.82,4.72-2.46,6.8-2.08,2.39-4.66,3.59-7.74,3.59h-18.23v-9.63h14.54c.69,0,1.29-.25,1.79-.76.44-.44.66-.98.66-1.61v-31.45h11.43ZM793.66,936.14c1.7,0,3.15.6,4.34,1.79,1.2,1.2,1.8,2.64,1.8,4.35s-.6,3.05-1.8,4.25c-1.19,1.2-2.64,1.79-4.34,1.79s-3.05-.6-4.25-1.79c-1.2-1.2-1.79-2.61-1.79-4.25s.6-3.15,1.79-4.35c1.19-1.19,2.61-1.79,4.25-1.79M869.5,954.36v29.47c0,5.42-1.86,9.73-5.57,12.94-3.46,2.96-8.21,4.44-14.26,4.44-6.67,0-11.9-2.14-15.67-6.42-3.65-3.84-5.48-9.03-5.48-15.58,0-7.11,2.3-12.97,6.9-17.57,4.09-4.15,9.16-6.23,15.2-6.23,3.21,0,6.27.72,9.16,2.17l3.97-3.21h5.76ZM857.98,966.55c-2.2-.88-4.28-1.32-6.23-1.32-3.52,0-6.37,1.29-8.55,3.87-2.17,2.58-3.26,5.95-3.26,10.1,0,3.9.86,6.94,2.6,9.11,1.73,2.17,4.14,3.26,7.22,3.26,2.77,0,4.85-.76,6.23-2.27,1.32-1.51,1.98-3.37,1.98-5.57v-17.19ZM849,936.14c1.7,0,3.13.6,4.3,1.79,1.16,1.2,1.75,2.64,1.75,4.35s-.58,3.13-1.75,4.3c-1.17,1.17-2.6,1.75-4.3,1.75s-3.15-.6-4.34-1.79c-1.2-1.2-1.79-2.61-1.79-4.25s.6-3.15,1.79-4.35c1.19-1.19,2.64-1.79,4.34-1.79M863.36,936.14c1.7,0,3.15.6,4.34,1.79,1.2,1.2,1.79,2.64,1.79,4.35s-.6,3.05-1.79,4.25c-1.2,1.2-2.64,1.79-4.34,1.79s-3.15-.6-4.34-1.79c-1.2-1.2-1.79-2.61-1.79-4.25s.6-3.15,1.79-4.35c1.19-1.19,2.64-1.79,4.34-1.79M892.73,932.74v55.62c0,.63.19,1.13.57,1.51.38.57.97.85,1.79.85h2.46v9.63h-6.14c-2.58,0-4.85-.91-6.8-2.74-2.27-2.08-3.4-4.63-3.4-7.65v-57.23h11.52ZM914.36,1000.36h-17.47v-9.63h17.47v9.63ZM931.16,1000.36h-17.47v-9.63h17.47v9.63ZM947.97,1000.36h-17.47v-9.63h17.47v9.63ZM964.78,1000.36h-17.47v-9.63h17.47v9.63ZM992.55,956.91v33.81h4.82v9.63h-3.3l-3.5-3.87h-.19c-2.14,2.58-4.82,3.87-8.03,3.87h-18.23v-9.63h14.26c.88,0,1.51-.25,1.89-.76.57-.5.85-1.13.85-1.89v-31.17h11.43ZM972.05,1007.25c1.7,0,3.15.6,4.34,1.79,1.19,1.19,1.79,2.64,1.79,4.34s-.6,3.15-1.79,4.34c-1.2,1.2-2.64,1.8-4.34,1.8s-3.15-.6-4.34-1.8c-1.2-1.2-1.79-2.64-1.79-4.34s.6-3.15,1.79-4.34c1.19-1.2,2.64-1.79,4.34-1.79M986.41,1007.25c1.7,0,3.15.6,4.34,1.79,1.19,1.19,1.79,2.64,1.79,4.34s-.6,3.15-1.79,4.34c-1.2,1.2-2.64,1.8-4.34,1.8s-3.06-.6-4.25-1.8c-1.2-1.2-1.79-2.64-1.79-4.34s.6-3.15,1.79-4.34c1.19-1.2,2.61-1.79,4.25-1.79M1009.26,958.52c6.23-1.82,11.68-2.74,16.34-2.74,7.62,0,13.76,2.39,18.42,7.18,4.22,4.34,6.33,9.76,6.33,16.24v10.77c0,2.58-.88,4.91-2.65,6.99-2.08,2.27-4.6,3.4-7.55,3.4h-43.44v-9.63h39.76c1.57,0,2.36-.79,2.36-2.36v-8.5c0-4.4-1.43-7.87-4.3-10.39-2.87-2.52-6.82-3.78-11.85-3.78-2.9,0-7.37.66-13.41,1.98v-9.16ZM1119.09,954.36v29.47c0,5.42-1.86,9.73-5.57,12.94-3.47,2.96-8.22,4.44-14.26,4.44-6.67,0-11.9-2.14-15.68-6.42-3.65-3.84-5.48-9.03-5.48-15.58,0-7.11,2.3-12.97,6.89-17.57,4.09-4.15,9.16-6.23,15.2-6.23,3.21,0,6.26.72,9.16,2.17l3.97-3.21h5.76ZM1107.57,966.55c-2.2-.88-4.28-1.32-6.23-1.32-3.53,0-6.37,1.29-8.55,3.87-2.17,2.58-3.26,5.95-3.26,10.1,0,3.9.87,6.94,2.6,9.11,1.73,2.17,4.14,3.26,7.23,3.26,2.77,0,4.85-.76,6.23-2.27,1.32-1.51,1.98-3.37,1.98-5.57v-17.19ZM1098.6,936.14c1.7,0,3.13.6,4.3,1.79,1.16,1.2,1.75,2.64,1.75,4.35s-.58,3.13-1.75,4.3c-1.17,1.17-2.6,1.75-4.3,1.75s-3.15-.6-4.34-1.79c-1.2-1.2-1.8-2.61-1.8-4.25s.6-3.15,1.8-4.35c1.19-1.19,2.64-1.79,4.34-1.79M1112.95,936.14c1.7,0,3.15.6,4.35,1.79,1.19,1.2,1.79,2.64,1.79,4.35s-.6,3.05-1.79,4.25c-1.2,1.2-2.64,1.79-4.35,1.79s-3.15-.6-4.34-1.79-1.79-2.61-1.79-4.25.6-3.15,1.79-4.35c1.2-1.19,2.64-1.79,4.34-1.79M1137.51,956.35c2.14-.38,4.63-.57,7.46-.57,7.24,0,13.09,2.33,17.57,6.99,3.97,4.22,5.95,9.44,5.95,15.67v11.52c0,2.96-1.07,5.45-3.21,7.46-1.95,1.95-4.28,2.93-6.99,2.93h-30.32v-9.63h26.63c1.57,0,2.36-.79,2.36-2.36v-8.78c0-4.34-1.32-7.84-3.97-10.48-2.46-2.46-6.01-3.78-10.67-3.97-2.14,0-3.75.13-4.82.38v-9.16ZM1200.78,1000.36c-6.93,0-12.37-2.36-16.34-7.08-3.34-4.03-5-9-5-14.92,0-7.05,1.98-12.56,5.95-16.52,4.15-4.03,9.48-6.05,15.96-6.05,4.72,0,8.81,1.17,12.28,3.49,4.53,3.28,6.8,7.93,6.8,13.98v17.47h3.02v9.63h-3.12c-.44,6.8-2.83,12.12-7.18,15.96-3.02,2.71-6.64,4.57-10.86,5.57-2.96.69-5.85,1.04-8.69,1.04-.94,0-2.3-.06-4.06-.19h-.28l-4.82-5.95v-4.15c2.58.44,5,.66,7.27.66,10.32,0,15.96-4.31,16.9-12.94h-7.84ZM1208.9,973.25c0-2.52-.82-4.5-2.46-5.95-1.45-1.26-3.15-1.89-5.1-1.89-3.21,0-5.76,1.13-7.65,3.4-1.89,2.27-2.84,5.38-2.84,9.35s1.04,6.9,3.12,9.16c2.08,2.27,4.91,3.4,8.5,3.4h6.42v-17.47ZM1240.25,1000.36h-17.47v-9.63h17.47v9.63ZM1257.06,1000.36h-17.47v-9.63h17.47v9.63ZM1273.87,1000.36h-17.47v-9.63h17.47v9.63ZM1285.68,958.52c5.98-1.82,11.43-2.74,16.34-2.74,7.62,0,13.76,2.39,18.42,7.18,4.22,4.28,6.33,9.7,6.33,16.24v11.52h3.12v9.63h-1.99l-3.12-3.87h-.19c-2.14,2.58-4.82,3.87-8.03,3.87h-43.44v-9.63h39.76c1.57,0,2.36-.79,2.36-2.36v-8.5c0-4.28-1.43-7.73-4.3-10.34-2.87-2.61-6.63-3.92-11.29-3.92-3.09,0-7.74.69-13.98,2.08v-9.16ZM1298.9,1007.25c1.7,0,3.15.6,4.34,1.79,1.2,1.19,1.79,2.64,1.79,4.34s-.6,3.15-1.79,4.34c-1.2,1.2-2.64,1.8-4.34,1.8s-3.05-.6-4.25-1.8c-1.2-1.2-1.79-2.64-1.79-4.34s.6-3.15,1.79-4.34c1.19-1.2,2.61-1.79,4.25-1.79M1357.64,932.74v57.23c0,2.64-.85,4.91-2.55,6.8-1.95,2.39-4.5,3.59-7.65,3.59h-18.22v-9.63h14.54c.69,0,1.29-.25,1.8-.76.44-.44.66-.98.66-1.61v-55.62h11.43Z"/>
  <g class="cls-9">
    <rect class="cls-7" x="101.74" y="416.27" width="391.32" height="458.71" transform="translate(-277.85 228.05) rotate(-29.29)"/>
  </g>
  <g class="cls-12">
    <rect class="cls-8" x="679.84" y="127.63" width="429.82" height="635.01"/>
  </g>
  <polygon class="cls-3" points="873.94 907.78 1012.31 827.69 882.29 883.07 873.94 907.78"/>
  <polygon class="cls-3" points="659.3 746.92 645.76 810.47 676.94 764.42 659.3 746.92"/>
  <path class="cls-3" d="M215.16,796.56s39.44,104.6,0,161.18c0,0-51.44,75.45-138.89,39.44C-11.18,961.17-8.17,776.47,11.11,666.9c19.28-109.57,92.89-279.14,209.19-283.58,116.3-4.43,150.3,125.17,150.3,125.17,0,0-71.43-94.31-140.02-24.01-68.59,70.3-15.43,312.08-15.43,312.08"/>
  <path class="cls-3" d="M292.29,777.27s18.27,52.03,49.76,25.3c31.49-26.72,52.3-144.89,56.59-210.05,4.29-65.16,29.15-165.47,121.74-154.32,92.59,11.15,132.03,148.32,132.03,148.32,0,0-48.01-102.02-95.16-90.88-47.15,11.14-42.01,185.19-44.58,234.91-2.57,49.72-17.15,159.93-87.45,170.41-70.3,10.49-125.25-37.54-132.93-123.7"/>
</svg>