<?xml version="1.0" encoding="UTF-8"?>
<svg id="Layer_1" data-name="Layer 1" xmlns="http://www.w3.org/2000/svg" viewBox="0 0 1883.65 220.91">
  <defs>
    <style>
      .cls-1 {
        fill: #315879;
        stroke-width: 0px;
      }
    </style>
  </defs>
  <path class="cls-1" d="M18.39,25.52C6.12,38.08,0,53.55,0,71.12v148.94h197.31v-33.48H32.28v-62.75h164.63v-33.47H32.28v-19.67c0-8.79,2.87-15.9,8.98-22.17,6.12-6.27,13.49-9.19,21.65-9.19h134V5.86H63.32c-17.56.42-32.67,6.7-44.93,19.67"/>
  <polygon class="cls-1" points="384.82 6.28 384.82 90.79 252.46 90.79 252.46 6.28 220.19 6.28 220.19 220.07 252.46 220.07 252.46 123.85 384.82 123.85 384.82 220.07 417.1 220.07 417.1 6.28 384.82 6.28"/>
  <path class="cls-1" d="M478.37,45.6c3.67-3.76,8.17-5.85,13.48-5.85h145.43V6.28h-145.43c-13.89,0-26.14,5.02-36.35,15.47-10.21,10.47-15.12,23.02-15.12,37.24v12.13c0,14.64,4.91,27.19,15.12,37.24,10.21,10.04,22.46,15.47,36.35,15.47h93.96c5.31,0,9.81,1.68,13.48,5.87,3.68,3.77,5.73,8.36,5.73,13.81v24.26c0,5.43-1.63,10.04-5.73,13.81-3.67,3.76-8.17,5.85-13.48,5.85h-145.43v33.47h145.43c13.89,0,26.15-5.02,36.35-15.48,10.22-10.45,15.12-23.01,15.12-37.23v-24.28c0-14.64-4.9-27.19-15.12-37.23-10.21-10.04-22.46-15.48-36.35-15.48h-93.96c-5.31,0-9.81-1.68-13.48-5.85-3.67-3.76-5.71-8.38-5.71-13.81v-12.13c.4-5.85,2.04-10.04,5.71-13.81"/>
  <rect class="cls-1" x="683.86" y="4.17" width="8.17" height="209.61"/>
  <path class="cls-1" d="M784.75,63.17c0,1.68-.41,2.52-.82,2.93-.4.41-1.63.41-2.85.41h-3.28c-2.45,0-4.49-.41-6.53-1.25-1.63-.84-3.27-2.09-4.08-3.77h-8.17c-6.95,0-12.26-1.25-15.52-4.18-3.28-2.93-4.91-6.7-4.91-12.13,0-6.27,2.04-10.88,5.71-13.81,3.69-2.93,8.99-4.19,15.93-4.19h2.87c1.22,0,2.45,0,3.67.42,1.23,0,2.45,0,3.67.42,1.24,0,2.05.41,2.87.41v24.27c0,2.09.41,3.76,1.23,5.01.81,1.25,2.44,2.1,4.89,2.1h2.04c1.23,0,2.05,0,2.45.41.41.85.82,1.68.82,2.93M746.35,44.77c0,3.76,1.24,6.68,3.69,8.36,2.45,1.68,6.12,2.51,10.61,2.51h5.3v-21.75c-1.22,0-2.85-.42-3.67-.42h-2.04c-4.08,0-7.35.84-9.81,2.52-2.85,2.08-4.08,5.02-4.08,8.79M747.17,16.32c0-1.25.41-2.51,1.22-3.35.82-.84,2.04-1.25,3.28-1.25s2.45.41,3.26,1.25c.82.84,1.23,2.09,1.23,3.35s-.41,2.51-1.23,3.35c-.81.84-2.04,1.25-3.26,1.25s-2.45-.41-3.28-1.25c-.81-.84-1.22-2.09-1.22-3.35M758.61,16.32c0-1.25.41-2.51,1.22-3.35.82-.84,2.04-1.25,3.28-1.25s2.45.41,3.26,1.25c.82.84,1.24,2.09,1.24,3.35s-.41,2.51-1.24,3.35c-.81.84-2.04,1.25-3.26,1.25s-2.45-.41-3.28-1.25c-.81-.84-1.22-2.09-1.22-3.35"/>
  <path class="cls-1" d="M781.48,66.53c-1.22,0-2.04-.42-2.45-.84-.41-.42-.82-1.25-.82-2.51,0-1.68.41-2.51.82-2.51.41-.42,1.63-.42,2.87-.42h6.12c2.45,0,4.08-.42,4.5-1.68.82-1.25,1.22-2.92,1.22-5.43v-24.68h7.35v28.86c0,.42,0,.84.41,1.25.41.42.82.85,1.63.85.41.41,1.24.41,2.04.41h4.5c1.23,0,2.04,0,2.47.42.41.42.81,1.25.81,2.51,0,1.68-.4,2.51-.81,2.93-.42.41-1.64.41-2.87.41h-1.64c-1.63,0-3.26-.41-4.5-.84-1.22-.42-2.45-1.67-3.26-2.93-.82.84-1.64,1.67-3.27,2.51-1.64.84-3.68,1.25-6.95,1.25h-8.17v.42ZM785.98,77.82c0-1.25.41-2.51,1.22-3.35.82-.84,2.04-1.25,3.28-1.25s2.45.41,3.26,1.25c.82.84,1.23,2.09,1.23,3.35s-.41,2.51-1.23,3.35c-.81.83-2.04,1.25-3.26,1.25s-2.45-.42-3.28-1.25c-.81-.84-1.22-2.09-1.22-3.35M797.42,77.82c0-1.25.41-2.51,1.22-3.35.82-.84,2.04-1.25,3.28-1.25s2.45.41,3.26,1.25c.82.84,1.24,2.09,1.24,3.35s-.41,2.51-1.24,3.35c-.81.83-2.04,1.25-3.26,1.25s-2.45-.42-3.28-1.25c-.81-.84-1.22-2.09-1.22-3.35"/>
  <path class="cls-1" d="M837.86,60.25c-.82-1.68-1.63-3.35-2.04-5.02-.41-2.08-.82-3.76-.82-5.85-.41-2.08-.41-3.76-.81-5.85-.41-1.68-.82-3.35-1.64-5.02-.81-1.68-2.04-2.52-3.27-3.36-1.63-.83-3.27-1.25-5.73-1.25s-4.08,0-5.71.42c-1.63.42-2.86.83-3.67.83v-5.85c1.22-.42,2.45-.84,4.5-1.25,2.04-.41,4.08-.84,6.53-.84,3.68,0,6.95.42,8.99,1.67,2.45,1.25,4.08,2.93,5.3,4.61,1.23,2.09,2.04,4.18,2.45,6.69.41,2.51.82,5.02,1.23,7.12.4,2.51.81,4.6,1.22,6.68.41,2.09,1.23,3.77,2.45,5.44h5.32c1.22,0,2.04,0,2.44.41.41.42.82,1.25.82,2.52,0,1.67-.41,2.51-.82,2.93-.4.42-1.64.42-2.85.42h-42.07c-2.45,0-3.68-1.25-3.68-3.76,0-1.26.41-1.68.82-2.1.41-.41,1.63-.41,2.86-.41h28.18v.84Z"/>
  <path class="cls-1" d="M869.73,31.8c1.22-.42,2.86-.83,4.9-.83,2.04-.42,4.08-.85,6.12-1.26,2.04-.42,4.08-.42,6.12-.84,2.04-.41,4.08-.41,5.73-.41,4.91,0,8.99.41,11.84,1.67,3.28,1.25,5.73,2.51,7.36,4.61,1.63,2.09,2.86,4.18,3.67,7.11.82,2.92.82,5.85.82,9.2v6.28c0,.42.41.84.82,1.25.41.42.81.84,1.63.84.41.41,1.22.41,2.04.41h3.67c1.24,0,2.04,0,2.45.42.41.42.82,1.25.82,2.51,0,1.67-.41,2.51-.82,2.92-.41.42-1.63.42-2.85.42h-.82c-1.63,0-3.27-.42-4.5-.84-1.22-.42-2.45-1.68-3.27-2.93-.81.84-1.63,1.68-3.26,2.52-1.64.83-3.68,1.25-6.95,1.25h-54.34c-1.22,0-2.04-.42-2.45-.84-.41-.42-.82-1.25-.82-2.51,0-1.68.41-2.51.82-2.51.41-.42,1.63-.42,2.86-.42h11.44v-31.8h7.35v3.77h-.41ZM909.35,52.29c0-2.92-.41-5.85-.81-7.94-.41-2.1-1.64-4.19-2.86-5.44-1.24-1.67-3.28-2.51-5.73-3.35-2.44-.83-5.31-1.25-8.99-1.25-1.63,0-3.67,0-5.3.42-2.04,0-3.68.41-5.73.83-2.04.42-3.67.42-5.31.84-1.63.42-3.27.84-4.49.84v23.01h33.91c2.44,0,4.08-.42,4.49-1.68.81-1.25,1.22-2.92,1.22-5.44v-.84h-.41Z"/>
  <path class="cls-1" d="M924.46,66.52c-1.22,0-2.04-.42-2.45-.83-.41-.42-.82-1.26-.82-2.52,0-1.68.41-2.51.82-2.51.41-.42,1.64-.42,2.87-.42h11.03V1.68h7.36v64.84h-18.8Z"/>
  <rect class="cls-1" x="955.51" y="1.67" width="7.35" height="64.84"/>
  <path class="cls-1" d="M1055.6,60.25v-31.8h7.35v38.08h-58.42c-3.67,0-6.94-.84-8.98-2.94-2.45-2.08-3.27-5.02-3.27-9.62v-17.58h7.35v16.74c0,2.08.41,3.76,1.23,5.02.81,1.25,2.45,2.09,4.89,2.09h49.84ZM1017.61,21.75c0-1.25.41-2.51,1.23-3.35.81-.83,2.04-1.25,3.27-1.25s2.45.42,3.27,1.25c.81.84,1.22,2.09,1.22,3.35s-.41,2.51-1.22,3.36c-.82.83-2.04,1.24-3.27,1.24s-2.45-.41-3.27-1.24c-.41-.85-1.23-2.1-1.23-3.36M1029.05,21.75c0-1.25.41-2.51,1.22-3.35.82-.83,2.04-1.25,3.28-1.25s2.45.42,3.26,1.25c.82.84,1.23,2.09,1.23,3.35s-.41,2.51-1.23,3.36c-.81.83-2.04,1.24-3.26,1.24s-2.45-.41-3.28-1.24c-.81-.85-1.22-2.1-1.22-3.36"/>
  <path class="cls-1" d="M1094,63.18c0,1.68-.41,2.51-.82,2.93-.39.41-1.63.41-2.85.41h-3.28c-3.68,0-6.94-.84-8.98-2.92-2.45-2.1-3.27-5.02-3.27-9.64V1.68h7.35v51.46c0,2.51.41,4.19,1.22,5.44.82,1.25,2.45,1.67,4.92,1.67h2.44c1.23,0,2.05,0,2.86.42,0,.42.41,1.25.41,2.51"/>
  <path class="cls-1" d="M1102.98,60.25c-.82-1.68-1.63-3.77-2.04-6.28-.82-2.51-1.23-5.44-1.23-8.36,0-2.51.41-4.6,1.23-7.11.82-2.1,2.04-4.19,3.67-5.87,1.65-1.67,3.69-2.92,5.73-3.77,2.45-.83,4.89-1.25,8.17-1.25s6.12.42,8.57,1.68c2.45,1.25,4.08,2.51,5.73,4.6,1.22,1.68,2.45,3.76,2.87,6.28.81,2.1.81,4.61.81,6.7,0,2.51-.4,5.02-1.22,7.53-.82,2.51-2.05,4.6-3.27,6.27-1.64,1.67-3.28,3.35-5.32,4.61-2.04,1.25-4.89,1.67-7.75,1.67h-28.18c-1.24,0-2.05-.42-2.45-.84-.41-.41-.82-1.25-.82-2.51,0-1.67.41-2.52.82-2.52.4-.41,1.63-.41,2.85-.41h11.85v-.42ZM1117.69,60.25c2.04,0,3.68-.42,4.9-1.25,1.24-.84,2.45-1.68,3.28-3.35.81-1.25,1.63-2.93,2.04-4.61.41-1.67.41-3.35.41-5.01,0-3.76-.82-7.12-2.86-9.21-1.63-2.51-4.5-3.77-7.77-3.77-1.22,0-2.85.42-4.08.84-1.22.42-2.45,1.25-3.26,2.1-.82.84-1.65,2.09-2.45,3.77-.82,1.67-.82,3.35-.82,5.43,0,1.68,0,2.93.41,4.61.41,1.24.41,2.92.82,4.18.39,1.25.81,2.51,1.22,3.35.41.84.82,2.1,1.23,2.51h6.94v.42Z"/>
  <path class="cls-1" d="M1172.84,50.62c0-2.51,0-4.6-.41-6.28-.41-2.08-.81-3.76-2.04-5.02-1.22-1.25-2.86-2.51-5.31-3.34-2.44-.84-5.3-1.25-9.38-1.25h-6.95v-5.85h7.35c4.89,0,8.98.41,12.25,1.67,3.28.84,5.71,2.51,7.36,4.19,1.63,1.67,2.85,3.76,3.67,6.27.82,2.52.82,5.44.82,8.37v8.36c0,.42.4.85.81,1.25.41.42.82.85,1.64.85.81.41,1.22.41,2.04.41h3.67c1.22,0,2.04,0,2.45.42.41.42.82,1.25.82,2.51,0,1.67-.41,2.52-.82,2.93-.41.42-1.63.42-2.87.42h-.81c-1.64,0-3.28-.42-4.5-.83-1.23-.42-2.45-1.68-3.27-2.93-.82.83-1.64,1.67-3.27,2.51-1.64.84-3.68,1.25-6.94,1.25h-25.74v-6.28h24.1c2.45,0,4.1-.41,4.5-1.66.82-1.26,1.23-2.93,1.23-5.45v-2.51h-.41Z"/>
  <path class="cls-1" d="M1216.96,60.25c-.82-1.68-1.63-3.35-2.04-5.02-.41-2.09-.82-3.77-.82-5.85-.41-2.09-.41-3.77-.81-5.85-.41-1.68-.82-3.36-1.65-5.02-.81-1.68-2.04-2.51-3.26-3.36-1.23-.83-3.27-1.25-5.73-1.25s-4.08,0-5.71.42c-1.63.42-2.87.83-3.67.83v-5.85c1.22-.41,2.45-.83,4.5-1.25,2.04-.42,4.08-.83,6.53-.83,3.67,0,6.95.41,8.99,1.68,2.45,1.24,4.08,2.92,5.3,4.59,1.23,2.09,2.04,4.18,2.45,6.69.41,2.51.82,5.02,1.23,7.12.4,2.5.81,4.6,1.22,6.69.41,2.08,1.23,3.76,2.45,5.44h5.31c1.22,0,2.04,0,2.44.41.41.42.82,1.25.82,2.51,0,1.68-.41,2.51-.82,2.93-.4.42-1.63.42-2.85.42h-42.07c-2.45,0-3.68-1.25-3.68-3.76,0-1.25.41-1.68.82-2.1.41-.41,1.64-.41,2.87-.41h28.18v.83ZM1198.98,16.32c0-1.25.41-2.51,1.23-3.36.81-.83,2.04-1.25,3.27-1.25s2.45.42,3.27,1.25c.81.85,1.22,2.1,1.22,3.36s-.41,2.51-1.22,3.35c-.82.83-2.04,1.25-3.27,1.25s-2.45-.42-3.27-1.25c-.82-.84-1.23-2.09-1.23-3.35"/>
  <path class="cls-1" d="M1230.03,66.52c-1.22,0-2.04-.42-2.45-.83-.41-.42-.82-1.26-.82-2.52,0-1.68.41-2.51.82-2.51.41-.42,1.63-.42,2.87-.42h6.12c2.45,0,4.08-.42,4.49-1.68.82-1.25,1.22-2.92,1.22-5.43V1.68h7.35v55.63c0,.42.41.85.82,1.25.41.42.81.85,1.63.85.82.41,1.23.41,2.04.41h4.49c1.24,0,2.04,0,2.45.42.41.42.82,1.25.82,2.52,0,1.67-.41,2.51-.82,2.93-.41.41-1.63.41-2.86.41h-2.45c-1.63,0-3.26-.41-4.5-.83-1.22-.42-2.44-1.68-3.26-2.93-.82.84-1.63,1.67-3.27,2.51-1.64.85-3.68,1.25-6.94,1.25h-7.77v.42Z"/>
  <path class="cls-1" d="M1257.4,66.52c-1.22,0-2.04-.42-2.45-.83-.41-.42-.82-1.26-.82-2.52,0-1.68.41-2.51.82-2.51.41-.42,1.63-.42,2.87-.42h11.03V1.68h7.35v64.84h-18.79Z"/>
  <path class="cls-1" d="M1368.11,60.25v-31.8h7.35v38.08h-58.43c-3.67,0-6.93-.84-8.97-2.94-2.45-2.08-3.27-5.02-3.27-9.62v-17.58h7.35v16.74c0,2.08.41,3.76,1.22,5.02.82,1.25,2.45,2.09,4.91,2.09h49.84ZM1330.12,21.75c0-1.25.4-2.51,1.22-3.35.82-.83,2.04-1.25,3.28-1.25s2.44.42,3.26,1.25c.82.84,1.23,2.09,1.23,3.35s-.41,2.51-1.23,3.36c-.82.83-2.04,1.24-3.26,1.24s-2.45-.41-3.28-1.24c-.82-.85-1.22-2.1-1.22-3.36M1341.55,21.75c0-1.25.41-2.51,1.23-3.35.82-.83,2.04-1.25,3.28-1.25s2.45.42,3.26,1.25c.82.84,1.24,2.09,1.24,3.35s-.41,2.51-1.24,3.36c-.81.83-2.04,1.24-3.26,1.24s-2.45-.41-3.28-1.24c-.82-.85-1.23-2.1-1.23-3.36"/>
  <rect class="cls-1" x="1387.31" y="1.67" width="7.35" height="64.84"/>
  <path class="cls-1" d="M1413.05,28.45h7.35v36.39c0,2.52-.41,5.02-.82,7.12-.41,2.09-1.22,3.77-2.45,5.44-1.22,1.68-2.87,2.93-4.91,3.76-2.04.85-4.9,1.25-8.17,1.25h-1.64v-6.27h.82c3.67,0,6.14-.84,7.35-2.52,1.24-1.67,2.04-4.59,2.04-8.36V28.45h.41Z"/>
  <path class="cls-1" d="M1451.44,63.18c0,1.68-.41,2.51-.82,2.93-.4.41-1.64.41-2.87.41h-3.26c-3.68,0-6.95-.84-8.99-2.92-2.45-2.1-3.27-5.02-3.27-9.64V1.68h7.35v51.46c0,2.51.41,4.19,1.22,5.44.82,1.25,2.45,1.67,4.9,1.67h2.45c1.23,0,2.05,0,2.86.42,0,.42.41,1.25.41,2.51"/>
  <path class="cls-1" d="M1460.02,60.25c-.82-1.68-1.64-3.77-2.04-6.28-.82-2.51-1.24-5.44-1.24-8.36,0-2.51.41-4.6,1.24-7.11.82-2.1,2.04-4.19,3.67-5.87,1.64-1.67,3.68-2.92,5.73-3.77,2.45-.83,4.89-1.25,8.17-1.25s6.12.42,8.57,1.68c2.47,1.25,4.1,2.51,5.73,4.6,1.23,1.68,2.45,3.76,2.86,6.28.81,2.1.81,4.61.81,6.7,0,2.51-.4,5.02-1.22,7.53-.82,2.51-2.04,4.6-3.27,6.27-1.63,1.67-3.27,3.35-5.31,4.61-2.04,1.25-4.89,1.67-7.76,1.67h-28.18c-1.23,0-2.05-.42-2.45-.84-.41-.41-.82-1.25-.82-2.51,0-1.67.41-2.52.82-2.52.4-.41,1.63-.41,2.85-.41h11.85v-.42ZM1475.13,60.25c2.04,0,3.68-.42,4.9-1.25,1.22-.84,2.45-1.68,3.28-3.35.81-1.25,1.63-2.93,2.04-4.61.41-1.67.4-3.35.4-5.01,0-3.76-.81-7.12-2.85-9.21-1.64-2.51-4.5-3.77-7.77-3.77-1.22,0-2.86.42-4.08.84-1.22.42-2.45,1.25-3.26,2.1-.82.84-1.64,2.09-2.45,3.77-.82,1.67-.82,3.35-.82,5.43,0,1.68,0,2.93.41,4.61.41,1.24.41,2.92.81,4.18.41,1.25.82,2.51,1.23,3.35.41.84.82,2.1,1.22,2.51h6.94v.42Z"/>
  <path class="cls-1" d="M1501.28,66.53v-6.28h17.97V17.15h7.35v43.09h15.92V1.67h7.36v64.85h-48.61ZM1531.51,90.79h-17.97v-4.18h4.1c-.41-1.68-.82-2.51-.82-3.36s-.41-1.67-.41-2.08c0-2.52.82-4.19,2.45-5.85,1.64-1.68,4.08-2.52,7.36-2.52h4.08v4.18h-2.45c-2.04,0-3.67.42-4.91,1.25-1.22.84-1.63,2.1-1.63,3.76,0,.42,0,1.25.41,2.1,0,.83.41,1.66.81,2.92h9.4v3.76h-.41Z"/>
  <rect class="cls-1" x="1562.97" y="1.67" width="7.35" height="64.84"/>
  <path class="cls-1" d="M1645.49,63.17c0,1.68-.41,2.52-.82,2.93-.4.41-1.63.41-2.85.41h-3.68c-2.45,0-4.5-.41-6.54-1.25-1.63-.84-3.27-2.09-4.08-3.77h-8.18c-6.94,0-12.25-1.25-15.52-4.18-3.27-2.93-4.91-6.7-4.91-12.13,0-6.27,2.05-10.88,5.73-13.81,3.68-2.93,8.99-4.19,15.93-4.19h2.85c1.23,0,2.47,0,3.68.42,1.23,0,2.45,0,3.68.42,1.22,0,2.04.41,2.85.41v24.27c0,2.09.41,3.76,1.23,5.01.81,1.25,2.45,2.1,4.91,2.1h2.04c1.22,0,2.04,0,2.45.41.81.85,1.22,1.68,1.22,2.93M1607.09,44.77c0,3.76,1.22,6.68,3.67,8.36,2.45,1.68,6.12,2.51,10.62,2.51h5.31v-21.75c-1.22,0-2.86-.42-3.67-.42h-2.04c-4.1,0-7.35.84-9.81,2.52-2.86,2.08-4.08,5.02-4.08,8.79M1607.9,16.32c0-1.25.41-2.51,1.23-3.35.82-.84,2.04-1.25,3.27-1.25s2.45.41,3.27,1.25c.82.84,1.22,2.09,1.22,3.35s-.4,2.51-1.22,3.35c-.82.84-2.04,1.25-3.27,1.25s-2.44-.41-3.27-1.25c-.82-.84-1.23-2.09-1.23-3.35M1619.34,16.32c0-1.25.41-2.51,1.23-3.35.81-.84,2.04-1.25,3.28-1.25s2.45.41,3.26,1.25c.82.84,1.23,2.09,1.23,3.35s-.41,2.51-1.23,3.35c-.81.84-2.04,1.25-3.26,1.25s-2.47-.41-3.28-1.25c-.82-.84-1.23-2.09-1.23-3.35"/>
  <path class="cls-1" d="M1642.22,66.52c-1.22,0-2.04-.42-2.45-.83-.41-.42-.82-1.26-.82-2.52,0-1.68.41-2.51.82-2.51.41-.42,1.64-.42,2.87-.42h14.29v-23.85h7.35v23.85h15.52v-23.85h7.35v23.85h9.4c2.45,0,4.08-.42,4.49-1.68.82-1.25,1.22-2.92,1.22-5.43v-24.68h7.35v28.86c0,.42.41.85.82,1.25.41.42.81.85,1.64.85.82.41,1.23.41,2.04.41h4.49c1.24,0,2.05,0,2.45.42.41.42.82,1.25.82,2.52,0,1.67-.41,2.51-.82,2.93-.41.41-1.63.41-2.86.41h-1.64c-1.63,0-3.26-.41-4.49-.83-1.22-.42-2.45-1.68-3.27-2.93-.82.84-1.64,1.67-3.27,2.51-1.63.85-3.67,1.25-6.94,1.25h-56.38v.42Z"/>
  <path class="cls-1" d="M1717.79,66.52c-1.22,0-2.04-.42-2.45-.83-.41-.42-.82-1.26-.82-2.52,0-1.68.41-2.51.82-2.51.41-.42,1.64-.42,2.87-.42h15.52v-23.85h7.35v23.85h15.52v-23.85h7.35v23.85h15.12v-31.79h7.35v38.07h-68.63Z"/>
  <path class="cls-1" d="M1829.72,66.52c0,2.51-.41,4.6-1.22,6.7-.82,2.09-1.64,3.77-2.86,5.01-1.23,1.25-3.28,2.51-5.32,2.93-2.04.83-4.9,1.25-8.17,1.25h-10.61v-5.85h10.61c3.68,0,6.12-.83,7.76-2.09,1.64-1.67,2.45-4.19,2.45-7.53h-5.3c-4.5,0-8.18-.85-11.03-2.1-2.87-1.25-4.91-2.92-6.54-4.6-1.64-2.08-2.45-4.18-3.27-6.27-.41-2.09-.82-4.18-.82-6.28,0-2.92.41-5.44,1.23-7.94.82-2.51,2.45-4.61,4.08-6.27,1.64-1.68,4.5-2.93,7.36-4.19,2.85-.83,6.53-1.25,10.61-1.25,1.63,0,3.27,0,5.32.42,2.04,0,3.67.42,5.3.42v31.37h8.18c1.22,0,2.04,0,2.44.42.41.41.83,1.25.83,2.51,0,1.67-.42,2.52-.83,2.92-.4.42-1.64.42-2.85.42h-7.35ZM1802.76,47.28c0,2.51.41,4.6,1.24,5.85.81,1.67,1.63,2.93,2.85,4.18,1.24.85,2.87,1.68,4.5,2.1,1.64.41,3.68.83,6.14.83h4.48v-26.35h-3.27c-1.63,0-3.67,0-5.31.41-2.04.42-3.67.83-5.3,1.68-1.65.83-2.87,2.51-4.08,4.18-.41,1.25-1.24,3.76-1.24,7.12M1825.23,20.92h-20.83v-4.6h4.9c-.81-1.68-1.22-3.35-1.22-4.19s-.41-2.09-.41-2.92c0-2.51.82-5.02,2.86-6.7,2.04-1.68,4.89-2.52,8.58-2.52h4.08v4.19h-3.27c-2.44,0-4.5.41-5.72.84-1.22.83-2.04,2.08-2.04,4.6,0,.84,0,1.67.41,2.51,0,.84.41,2.08,1.22,3.76h10.62v5.02h.82Z"/>
  <path class="cls-1" d="M1850.15,60.25c-.82-1.68-1.64-3.77-2.04-6.28-.82-2.51-1.24-5.44-1.24-8.36,0-2.51.41-4.6,1.24-7.11.82-2.1,2.04-4.19,3.67-5.87,1.64-1.67,3.68-2.92,5.73-3.77,2.45-.83,4.89-1.25,8.17-1.25s6.12.42,8.57,1.68c2.45,1.25,4.09,2.51,5.73,4.6,1.22,1.68,2.45,3.76,2.85,6.28.82,2.1.82,4.61.82,6.7,0,2.51-.41,5.02-1.22,7.53-.82,2.51-2.05,4.6-3.27,6.27-1.63,1.67-3.27,3.35-5.31,4.61-2.04,1.25-4.89,1.67-7.75,1.67h-28.18c-1.23,0-2.05-.42-2.45-.84-.41-.41-.82-1.25-.82-2.51,0-1.67.41-2.52.82-2.52.4-.41,1.63-.41,2.85-.41h11.85v-.42ZM1865.26,60.25c2.04,0,3.68-.42,4.9-1.25,1.22-.84,2.45-1.68,3.28-3.35.81-1.25,1.63-2.93,2.04-4.61.4-1.67.4-3.35.4-5.01,0-3.76-.81-7.12-2.85-9.21-1.64-2.51-4.5-3.77-7.77-3.77-1.22,0-2.87.42-4.08.84-1.22.42-2.45,1.25-3.26,2.1-.82.84-1.64,2.09-2.45,3.77-.82,1.67-.82,3.35-.82,5.43,0,1.68,0,2.93.41,4.61.41,1.24.41,2.92.81,4.18.41,1.25.82,2.51,1.23,3.35.41.84.82,2.1,1.22,2.51h6.94v.42Z"/>
  <polygon class="cls-1" points="742.67 152.29 742.67 218.81 784.34 218.81 784.34 212.11 751.26 212.11 751.26 187.85 781.9 187.85 781.9 181.16 751.26 181.16 751.26 158.99 783.12 158.99 783.12 152.29 742.67 152.29"/>
  <path class="cls-1" d="M860.74,218.81v-27.62c0-2.09,0-3.77-.41-5.44-.41-1.68-.81-2.93-1.63-4.19-.82-1.25-2.04-2.08-3.27-2.92-1.22-.84-3.27-1.25-5.31-1.25-2.45,0-4.08.41-5.73,1.25-1.63.84-2.85,1.67-3.67,3.35-.82,1.25-1.63,2.93-2.04,4.6-.41,1.68-.41,3.76-.41,5.85v25.94h-7.75v-26.77c0-2.08,0-3.76-.41-5.43-.41-1.68-.82-3.36-1.63-4.61-.82-1.25-1.64-2.08-3.27-2.92-1.22-.84-3.27-1.25-5.31-1.25s-4.08.41-5.31,1.25c-1.64.84-2.86,2.09-3.68,3.35-.81,1.25-1.63,2.93-2.04,5.02-.4,1.66-.81,3.76-.81,5.43v25.94h-7.77v-30.54c0-5.43,0-10.45-.41-15.9h7.77l.41,7.53c3.26-5.45,8.17-8.37,14.28-8.37,3.68,0,6.54.84,8.99,2.09,2.45,1.25,4.08,3.76,5.73,7.53,3.26-6.28,8.57-9.62,15.92-9.62,3.27,0,5.73.41,7.77,1.67,2.04.85,3.67,2.52,4.9,4.19,1.22,1.68,2.04,3.77,2.45,6.28.4,2.51.81,5.02.81,7.94v27.19h-8.17v.42Z"/>
  <path class="cls-1" d="M887.29,160.66h8.98v-8.36h-8.98v8.36ZM887.7,218.82h7.75v-46.44h-7.75v46.44Z"/>
  <path class="cls-1" d="M937.54,179.9h-2.04c-4.5,0-7.77,1.25-9.81,3.76-1.63,2.52-2.86,5.86-2.86,10.45v25.11h-7.76v-33.05c0-4.6,0-9.21-.41-13.81h7.75l.41,7.53c1.63-2.93,3.67-4.6,5.73-5.85,2.04-1.25,4.9-1.68,8.16-1.68h2.45v7.53h-1.63Z"/>
  <path class="cls-1" d="M981.25,218.82c0-.84-.41-2.09-.41-3.35s-.41-2.1-.41-3.36c-2.04,2.93-4.08,4.61-6.54,5.87-2.45,1.25-5.31,1.67-8.58,1.67-2.04,0-4.08-.41-6.12-.83-2.04-.42-3.67-1.26-4.9-2.52-1.64-1.25-2.45-2.51-3.68-4.19-.81-1.67-1.22-3.75-1.22-6.27,0-3.35.81-6.28,2.45-8.38,1.63-2.09,3.68-3.76,6.54-4.6,2.45-1.25,5.31-1.68,8.57-2.09,2.87-.42,6.14-.42,8.59-.42h4.5v-2.93c0-3.76-.82-6.27-2.05-8.37-1.63-2.08-4.08-2.92-7.75-2.92-2.87,0-4.91.41-6.54,1.67s-2.45,3.36-2.87,6.28h-7.77c0-2.51.82-4.6,1.64-6.28.83-1.67,2.46-2.92,3.68-4.18,1.64-.84,3.27-1.68,5.31-2.1,2.04-.41,4.08-.84,6.12-.84,5.73,0,10.22,1.25,13.07,3.77,2.87,2.51,4.08,6.7,4.08,12.96v17.16c0,2.92,0,5.85.41,8.37.41,2.51.82,4.18.82,5.43h-6.94v.42ZM979.62,195.81h-4.08c-1.64,0-3.68,0-5.73.41-2.04,0-4.08.84-6.12,1.25-2.04.84-3.27,1.68-4.9,2.93-1.22,1.25-2.04,3.35-2.04,5.44,0,1.25.41,2.52.82,3.76.4,1.25,1.22,2.1,2.04,2.93.81.83,2.04,1.25,3.26,1.67,1.24.41,2.45.41,3.68.41,2.85,0,5.31-.41,6.94-1.66,1.64-1.26,2.87-2.52,3.68-4.19.81-1.67,1.22-3.76,1.63-6.27.82-2.09.82-4.6.82-6.69"/>
  <path class="cls-1" d="M1020.47,219.23c-3.67,0-6.54-.83-8.17-2.51-1.64-1.68-2.87-4.6-2.87-8.37v-30.54h-8.98v-5.44h8.98v-9.2l7.76-3.35v12.55h10.21v5.44h-10.21v30.95c0,.85.41,1.68.82,2.51.41.42,1.24,1.26,2.04,1.26.82.42,2.04.42,3.27.42h2.04c.81,0,1.22,0,2.04-.42v6.27c-2.04.42-4.49.42-6.94.42"/>
  <path class="cls-1" d="M1047.02,197.06v.84c0,2.1.41,4.19.82,6.28.4,2.1,1.22,3.76,2.45,5.44,1.22,1.67,2.44,2.92,4.08,3.76,1.63.84,3.67,1.25,6.12,1.25,3.27,0,5.73-.84,7.77-2.93,2.04-1.68,3.26-4.6,3.67-7.94h7.36c-.82,5.43-3.28,9.62-6.54,12.13-3.28,2.51-8.17,3.76-13.07,3.76-3.69,0-6.55-.42-9.4-1.68-2.45-1.25-4.9-2.93-6.54-5.02-1.64-2.08-2.85-4.59-4.08-7.53-.81-2.92-1.22-5.86-1.22-9.62,0-3.35.41-6.7,1.22-9.62.82-2.93,2.04-5.44,4.08-7.96,2.05-2.51,4.09-4.18,6.54-5.43,2.44-1.26,5.71-2.1,9.81-2.1,3.67,0,6.94.84,9.38,2.1,2.45,1.25,4.5,3.34,6.14,5.43,1.64,2.52,2.45,5.02,3.27,7.96.41,2.92.82,6.27.82,9.62h-32.68v1.25ZM1072.35,191.61c0-2.09-.41-3.76-.82-5.43-.39-1.68-1.22-3.35-2.04-4.6-.81-1.25-2.04-2.52-3.67-3.36-1.63-.83-3.26-1.25-5.31-1.25s-4.08.42-5.31,1.25c-1.22.84-2.85,1.68-4.08,3.36-1.22,1.25-2.04,2.92-2.45,4.6-.81,1.67-1.22,3.76-1.22,5.43h24.92Z"/>
  <path class="cls-1" d="M1129.13,205.42c0,2.51-.41,5.02-1.63,6.7-1.24,1.66-2.45,3.34-4.08,4.59-1.64,1.26-3.68,2.09-6.14,2.52-2.04.41-4.5.83-6.54.83-2.45,0-4.49-.42-6.94-.83-2.04-.42-4.08-1.25-5.71-2.52-1.63-1.25-2.87-2.93-3.67-4.59-.82-2.1-1.24-4.19-1.24-7.13h7.77c0,3.36,1.22,5.45,2.85,7.13,1.64,1.66,4.1,2.08,7.35,2.08,1.23,0,2.45,0,3.67-.42,1.24-.41,2.45-.83,3.28-1.25.82-.83,1.63-1.25,2.45-2.51.82-.83.82-2.09.82-3.77,0-1.25-.41-2.08-.82-2.92-.41-.84-1.23-1.67-2.04-2.1-.82-.84-2.04-1.25-3.27-1.67-1.22-.42-2.45-.84-3.67-1.25l-3.67-.84c-1.64-.41-3.28-.84-4.91-1.67-1.63-.84-3.27-1.25-4.49-2.51-1.24-.83-2.45-2.08-3.28-3.76-.81-1.25-1.22-3.35-1.22-5.44,0-2.52.41-4.6,1.63-6.28,1.23-1.67,2.45-2.92,4.08-4.18,1.64-1.26,3.68-1.68,5.73-2.09,2.04-.42,4.08-.84,6.12-.84,2.45,0,4.5.42,6.54.84,2.04.41,3.67,1.24,5.31,2.5,1.63,1.25,2.85,2.52,3.67,4.19.82,1.68,1.22,3.77,1.63,6.7h-7.75c0-2.93-.82-5.02-2.45-6.28-1.63-1.68-3.68-2.1-6.53-2.1-.82,0-2.04,0-3.28.42-1.22.42-2.04.84-2.86,1.25-.81.42-1.63,1.26-2.04,2.09-.4.85-.81,2.1-.81,3.36,0,2.08.81,3.76,2.85,5.02,2.05,1.26,4.1,2.09,6.94,2.92l3.68.85c2.04.41,3.68,1.24,5.72,1.67,1.63.83,3.27,1.67,4.49,2.51,1.23.84,2.04,2.09,2.87,3.76-.41,1.26-.41,2.93-.41,5.02"/>
  <polygon class="cls-1" points="1219.82 152.29 1219.82 181.16 1186.32 181.16 1186.32 152.29 1178.15 152.29 1178.15 218.81 1186.32 218.81 1186.32 188.26 1219.82 188.26 1219.82 218.81 1227.99 218.81 1227.99 152.29 1219.82 152.29"/>
  <path class="cls-1" d="M1254.13,197.06v.84c0,2.1.41,4.19.82,6.28.39,2.1,1.22,3.76,2.45,5.44,1.22,1.67,2.44,2.92,4.08,3.76,1.63.84,3.67,1.25,6.12,1.25,3.27,0,5.71-.84,7.75-2.93,2.05-1.68,3.28-4.6,3.68-7.94h7.36c-.82,5.43-3.28,9.62-6.55,12.13-3.26,2.51-8.17,3.76-13.07,3.76-3.68,0-6.54-.42-9.39-1.68-2.45-1.25-4.9-2.93-6.54-5.02-1.63-2.08-2.85-4.59-4.08-7.53-.81-2.92-1.22-5.86-1.22-9.62,0-3.35.41-6.7,1.22-9.62.82-2.93,2.04-5.44,4.08-7.96,1.64-2.09,4.1-4.18,6.54-5.43,2.44-1.26,5.71-2.1,9.8-2.1,3.68,0,6.95.84,9.4,2.1,2.45,1.25,4.49,3.34,6.13,5.43,1.64,2.52,2.45,5.02,3.27,7.96.41,2.92.82,6.27.82,9.62h-32.68v1.25ZM1279.46,191.61c0-2.09-.41-3.76-.82-5.43-.41-1.68-1.22-3.35-2.04-4.6-.82-1.25-2.04-2.52-3.67-3.36-1.65-.83-3.28-1.25-5.32-1.25s-4.08.42-5.31,1.25c-1.63.84-2.85,1.68-4.08,3.36-1.22,1.25-2.04,2.92-2.45,4.6-.81,1.67-1.22,3.76-1.22,5.43h24.92Z"/>
  <path class="cls-1" d="M1332.16,218.82c0-.84-.41-2.09-.41-3.35s-.41-2.1-.41-3.36c-2.04,2.93-4.08,4.61-6.54,5.87-2.45,1.25-5.3,1.67-8.58,1.67-2.04,0-4.08-.41-6.12-.83-2.04-.42-3.67-1.26-4.9-2.52-1.63-1.25-2.45-2.51-3.68-4.19-.81-1.67-1.22-3.75-1.22-6.27,0-3.35.81-6.28,2.45-8.38,1.64-2.09,3.68-3.76,6.54-4.6,2.45-1.25,5.31-1.68,8.57-2.09,2.87-.42,6.14-.42,8.59-.42h4.5v-2.93c0-3.76-.82-6.27-2.05-8.37-1.63-2.08-4.08-2.92-7.75-2.92-2.87,0-4.91.41-6.54,1.67-1.63,1.25-2.45,3.36-2.86,6.28h-7.75c0-2.51.81-4.6,1.63-6.28.82-1.67,2.45-2.92,3.67-4.18,1.64-.84,3.27-1.68,5.31-2.1,2.04-.41,4.08-.84,6.12-.84,5.73,0,10.22,1.25,13.07,3.77,2.87,2.51,4.08,6.7,4.08,12.96v17.16c0,2.92,0,5.85.41,8.37.41,2.51.82,4.18.82,5.43h-6.95v.42ZM1330.53,195.81h-3.68c-1.63,0-3.67,0-5.71.41-2.04,0-4.08.84-6.12,1.25-2.04.84-3.27,1.68-4.91,2.93-1.23,1.25-2.04,3.35-2.04,5.44,0,1.25.41,2.52.81,3.76.41,1.25,1.23,2.1,2.05,2.93.81.83,2.04,1.25,3.26,1.67,1.24.41,2.45.41,3.67.41,2.87,0,5.32-.41,6.95-1.66,1.64-1.26,2.87-2.52,3.68-4.19.81-1.67,1.22-3.76,1.63-6.27,0-2.09.41-4.6.41-6.69"/>
  <rect class="cls-1" x="1357.49" y="152.29" width="7.75" height="66.52"/>
  <path class="cls-1" d="M1398.75,219.23c-3.67,0-6.54-.83-8.17-2.51-2.04-1.68-2.87-4.6-2.87-8.37v-30.54h-8.98v-5.44h8.98v-9.2l7.76-3.35v12.55h10.21v5.44h-10.21v30.95c0,.85.41,1.68.82,2.51.41.42,1.24,1.26,2.04,1.26s2.04.42,3.27.42h2.04c.81,0,1.22,0,2.04-.42v6.27c-2.04.42-4.49.42-6.94.42"/>
  <path class="cls-1" d="M1451.44,218.81v-25.94c0-2.08,0-3.76-.41-5.85-.41-2.09-.81-3.36-1.22-5.02-.82-1.25-1.64-2.51-3.27-3.35-1.22-.84-3.28-1.25-5.73-1.25s-4.08.41-5.72,1.25c-1.63.84-2.86,2.09-3.67,3.77-.82,1.66-1.64,3.34-2.05,5.43-.4,2.09-.81,4.19-.81,6.28v24.68h-7.77v-66.52h7.77v27.2c1.63-2.52,3.67-4.6,6.12-5.85,2.45-1.26,5.31-2.1,8.57-2.1,2.87,0,5.73.42,7.77,1.25,2.04.85,3.68,2.1,4.91,3.77,1.22,1.67,2.04,3.35,2.86,5.87.41,2.08.81,4.6.81,7.52v28.87h-8.17Z"/>
  <path class="cls-1" d="M1554.39,200.4c0,3.35-.82,6.7-2.04,8.79-1.63,2.51-3.27,4.6-5.71,6.28-2.45,1.67-4.91,2.51-7.77,3.34-2.87.84-5.71,1.26-8.99,1.26-2.86,0-5.71-.42-8.57-.84-2.87-.42-4.91-1.68-6.95-3.36-2.04-1.66-3.67-3.34-4.9-5.85-1.22-2.52-2.04-5.44-2.45-8.79h8.58c0,2.1.41,3.77,1.23,5.45.82,1.67,2.04,2.93,3.26,3.76,1.24.83,2.87,1.68,4.5,2.09,1.64.42,3.68.83,5.31.83s3.68-.41,5.32-.83c1.63-.41,3.67-1.26,4.89-2.09,1.64-.83,2.87-2.09,3.68-3.76.81-1.68,1.22-3.35,1.22-5.45,0-1.66-.41-3.34-1.22-4.59-.82-1.26-1.63-2.52-2.86-3.35-1.22-.84-2.45-1.68-4.08-2.52-1.63-.83-3.27-1.25-4.91-1.67l-5.71-1.67c-2.45-.85-4.5-1.68-6.94-2.51-2.04-.85-4.08-2.1-6.12-3.36-1.64-1.25-3.27-2.92-4.1-5.02-1.22-2.08-1.63-4.18-1.63-7.11,0-3.35.82-6.28,2.04-8.36,1.23-2.09,2.86-4.19,5.31-5.85,2.04-1.68,4.5-2.52,7.35-3.36,2.85-.83,5.31-.83,8.17-.83s5.31.42,7.75.83c2.45.42,4.91,1.68,6.95,2.93,2.04,1.25,3.68,2.93,4.9,5.02,1.22,2.08,2.04,5.02,2.04,7.94h-8.58c0-2.08-.82-3.35-1.22-5.01-.41-1.67-1.64-2.51-2.87-3.35-1.23-.84-2.45-1.25-4.08-1.67-1.64-.42-3.28-.42-4.91-.42s-3.27,0-4.9.42c-1.64.41-3.27.83-4.5,2.09-1.22.83-2.45,2.08-3.27,3.34-.82,1.25-1.23,2.93-1.23,5.02,0,1.68.41,2.93,1.23,3.76.81,1.25,1.64,2.09,2.44,2.93,1.24.84,2.45,1.67,3.68,2.09,1.22.42,2.45,1.25,3.68,1.68l7.35,2.51c2.45.84,4.49,1.67,6.94,2.51,2.04.84,4.08,2.09,6.12,3.35,1.63,1.25,3.27,2.93,4.08,5.02,1.63,2.92,2.45,5.43,2.45,8.36"/>
  <path class="cls-1" d="M1575.63,197.06v.84c0,2.1.41,4.19.82,6.28.39,2.1,1.22,3.76,2.45,5.44,1.22,1.67,2.44,2.92,4.08,3.76,1.63.84,3.67,1.25,6.12,1.25,3.26,0,5.71-.84,7.75-2.93,2.05-1.68,3.28-4.6,3.68-7.94h7.35c-.82,5.43-3.27,9.62-6.54,12.13-3.26,2.51-8.17,3.76-13.07,3.76-3.67,0-6.53-.42-9.38-1.68-2.45-1.25-4.9-2.93-6.54-5.02-1.64-2.08-2.85-4.59-4.08-7.53-.81-2.92-1.22-5.86-1.22-9.62,0-3.35.41-6.7,1.22-9.62.82-2.93,2.04-5.44,4.08-7.96,1.64-2.09,4.1-4.18,6.54-5.43,2.44-1.26,5.71-2.1,9.8-2.1,3.67,0,6.95.84,9.4,2.1,2.45,1.25,4.49,3.34,6.13,5.43,1.63,2.52,2.45,5.02,3.27,7.96.41,2.92.82,6.27.82,9.62h-32.68v1.25ZM1600.96,191.61c0-2.09-.41-3.76-.82-5.43-.41-1.68-1.22-3.35-2.04-4.6-.82-1.25-2.04-2.52-3.68-3.36-1.64-.83-3.27-1.25-5.31-1.25s-4.08.42-5.31,1.25c-1.63.84-2.85,1.68-4.08,3.36-1.22,1.25-2.04,2.92-2.45,4.6-.81,1.67-1.22,3.76-1.22,5.43h24.92Z"/>
  <path class="cls-1" d="M1647.53,179.9h-2.04c-4.49,0-7.77,1.25-9.81,3.76-1.63,2.52-2.86,5.86-2.86,10.45v25.11h-7.76v-33.05c0-4.6,0-9.21-.41-13.81h7.75l.41,7.53c1.63-2.93,3.67-4.6,5.73-5.85,2.04-1.25,4.9-1.68,8.17-1.68h2.45v7.53h-1.63Z"/>
  <polygon class="cls-1" points="1694.1 172.37 1679.8 210.87 1665.51 172.37 1656.52 172.37 1674.9 218.81 1683.06 218.81 1702.27 172.37 1694.1 172.37"/>
  <path class="cls-1" d="M1714.53,160.66h8.98v-8.36h-8.98v8.36ZM1714.94,218.82h7.75v-46.44h-7.75v46.44Z"/>
  <path class="cls-1" d="M1778.25,210.86c-1.22,2.09-2.45,3.76-4.08,5.02-1.63,1.25-3.68,2.51-6.12,2.93-2.45.83-4.5.83-7.35.83-3.67,0-6.95-.42-9.4-1.68-2.87-1.25-4.91-2.92-6.95-5.02-2.04-2.09-3.26-4.6-4.08-7.53-.82-2.92-1.63-6.28-1.63-9.62,0-3.76.41-6.68,1.63-10.04,1.23-3.35,2.45-5.85,4.08-7.94,2.04-2.08,4.08-4.19,6.95-5.44,2.86-1.25,6.12-2.09,9.81-2.09,5.3,0,9.38,1.26,12.66,4.19,3.28,2.51,5.32,6.68,5.71,12.13h-7.75c-.41-3.36-1.23-5.87-3.27-7.96-2.04-1.67-4.5-2.92-7.75-2.92-2.87,0-4.91.41-6.95,1.67-1.63,1.25-3.26,2.51-4.49,4.19-1.22,1.67-2.04,3.76-2.45,6.28-.41,2.08-.81,4.6-.81,7.11,0,2.08.4,4.6.81,6.68.41,2.1,1.23,4.19,2.45,5.87,1.23,1.67,2.45,3.35,4.08,4.18,1.63.85,3.68,1.68,6.53,1.68,3.28,0,6.14-.83,8.18-2.93,2.04-2.09,3.27-4.61,3.27-8.37h7.77c.81,4.19.39,6.7-.82,8.79"/>
  <path class="cls-1" d="M1799.9,197.06v.84c0,2.1.41,4.19.82,6.28.4,2.1,1.22,3.76,2.45,5.44,1.22,1.67,2.44,2.92,4.08,3.76,1.63.84,3.68,1.25,6.12,1.25,3.27,0,5.73-.84,7.77-2.93,2.04-1.68,3.27-4.6,3.67-7.94h7.35c-.82,5.43-3.27,9.62-6.53,12.13-3.27,2.51-8.17,3.76-13.07,3.76-3.68,0-6.54-.42-9.4-1.68-2.45-1.25-4.9-2.93-6.55-5.02-1.63-2.08-2.85-4.59-4.08-7.53-.81-2.92-1.22-5.86-1.22-9.62,0-3.35.41-6.7,1.22-9.62.82-2.93,2.04-5.44,4.08-7.96,1.65-2.09,4.1-4.18,6.55-5.43,2.44-1.26,5.71-2.1,9.81-2.1,3.67,0,6.94.84,9.39,2.1,2.45,1.25,4.49,3.34,6.13,5.43,1.63,2.52,2.45,5.02,3.27,7.96.41,2.92.82,6.27.82,9.62h-32.68v1.25ZM1825.23,191.61c0-2.09-.41-3.76-.82-5.43-.4-1.68-1.22-3.35-2.04-4.6-.81-1.25-2.04-2.52-3.68-3.36-1.63-.83-3.26-1.25-5.31-1.25s-4.08.42-5.31,1.25c-1.64.84-2.85,1.68-4.08,3.36-1.22,1.25-2.04,2.92-2.45,4.6-.81,1.67-1.22,3.76-1.22,5.43h24.92Z"/>
  <path class="cls-1" d="M1882.01,205.42c0,2.51-.41,5.02-1.63,6.7-1.24,1.66-2.45,3.34-4.08,4.59-1.64,1.26-3.68,2.09-6.14,2.52-2.04.41-4.5.83-6.54.83-2.45,0-4.49-.42-6.94-.83-2.04-.42-4.08-1.25-5.71-2.52-1.63-1.25-2.87-2.93-3.68-4.59-.82-1.68-1.23-4.19-1.23-7.13h7.77c0,3.36,1.22,5.45,2.85,7.13,1.64,1.66,4.1,2.08,7.35,2.08,1.23,0,2.45,0,3.67-.42,1.24-.41,2.45-.83,3.28-1.25.82-.83,1.63-1.25,2.45-2.51.81-.83.81-2.09.81-3.77,0-1.25-.4-2.08-.81-2.92-.41-.84-1.23-1.67-2.04-2.1-.82-.84-2.04-1.25-3.27-1.67-1.22-.42-2.45-.84-3.67-1.25l-3.67-.84c-1.64-.41-3.28-.84-4.91-1.67-1.64-.42-3.27-1.25-4.49-2.51-1.24-.83-2.45-2.08-3.28-3.76-.81-1.25-1.22-3.35-1.22-5.44,0-2.52.41-4.6,1.63-6.28,1.23-1.67,2.45-2.92,4.08-4.18,1.63-1.26,3.68-1.68,5.73-2.09,2.04-.42,4.08-.84,6.12-.84,2.45,0,4.5.42,6.54.84,2.04.41,3.67,1.24,5.31,2.5,1.63,1.25,2.85,2.52,3.67,4.19.82,1.68,1.22,3.77,1.63,6.7h-7.75c0-2.93-.82-5.02-2.45-6.28-1.63-1.68-3.68-2.1-6.53-2.1-.82,0-2.04,0-3.28.42-1.22.42-2.04.84-2.86,1.25-.81.42-1.63,1.26-2.44,2.09-.41.85-.82,2.1-.82,3.36,0,2.08.82,3.76,2.86,5.02,2.04,1.26,4.08,2.09,6.94,2.92l3.68.85c2.04.41,3.67,1.24,5.71,1.67,1.64.83,3.27,1.67,4.49,2.51,1.24.84,2.05,2.09,2.87,3.76.82,1.68,0,2.93,0,5.02"/>
</svg>