<?xml version="1.0" encoding="UTF-8"?>
<svg id="Layer_1" data-name="Layer 1" xmlns="http://www.w3.org/2000/svg" viewBox="0 0 1788.1 341.94">
  <defs>
    <style>
      .cls-1 {
        fill: #e82627;
        stroke-width: 0px;
      }
    </style>
  </defs>
  <path class="cls-1" d="M470.81,231.56h-18.4l-27.7,87.43-27.92-87.43h-19.07l35.29,108.21h22.51l35.29-108.21ZM696.92,231.56h-17.98v108.21h17.98v-108.21ZM807.28,231.56h-18.41l-27.7,87.43-27.91-87.43h-19.02l35.29,108.21h22.5l35.29-108.21M1409.02,231.56h-17.97v108.21h17.97v-108.21ZM1563.49,231.56h-17.97v108.21h17.97v-108.21ZM102.86,229.37c-15.36,0-25.96,7.37-30.32,18.85v-16.66h-17.97v108.21h17.97v-71.21c0-15.14,7.59-25.3,23.6-25.3s23.38,10.16,23.38,25.3v71.21h17.97v-74.88c0-20.33-12.78-35.51-34.63-35.51M211.69,229.37c-15.35,0-25.95,7.37-30.31,18.85v-16.66h-17.98v108.21h17.98v-71.21c0-15.14,7.59-25.3,23.6-25.3s23.38,10.16,23.38,25.3v71.21h17.97v-74.88c0-20.33-12.78-35.51-34.64-35.51M318.58,326.54c-18.2,0-30.72-13.01-30.72-40.93s12.34-40.93,30.72-40.93,30.71,12.78,30.71,40.93-12.13,40.93-30.71,40.93M319.45,229.37c-32.46,0-50.43,23.82-50.43,57.59s18.41,54.98,48.68,54.98c32.67,0,50.43-23.82,50.43-57.6s-18.19-54.97-48.68-54.97M525.86,328.94c-12.34,0-20.76-6.94-20.76-19.02,0-10.17,5.85-15.14,18.19-18.19l13.21-3.23c8.2-1.97,12.78-3.23,14.49-4.75v20.98c0,16.01-11.04,24.26-25.08,24.26M531.54,229.42c-26.17,0-42.4,15.79-43.71,34.64l16.67,3.45c.87-13.83,9.29-24.25,25.74-24.25,13.87,0,20.76,7.59,20.76,20.11v.65c0,5.2-1.53,7.37-6.29,8.69l-31.14,7.76c-16.67,4.33-26.4,15.37-26.4,30.72,0,19.46,14.48,30.72,33.76,30.72,16.23,0,27.05-7.81,30.06-18.63.44,10.16,1.31,14.48,2.18,16.45h18.41c-1.97-5.62-2.84-13.43-2.84-22.51v-54.98c0-20.33-14.04-32.89-37.21-32.89M836.38,273.92c2.39-19.07,12.13-29.89,29.23-29.89s25.74,9.72,26.17,29.89h-55.4ZM865.61,229.33c-28.57,0-48.47,20.11-48.47,57.15s18.4,55.41,48.47,55.41c24.69,0,40.26-14.05,44.15-35.3l-16.45-4.32c-2.84,18.19-12.56,24.48-25.96,24.48-21.42,0-30.92-15.79-31.58-40.06h74.24v-6.07c0-37.87-20.55-51.3-44.37-51.3M1177.86,273.92c2.4-19.07,12.13-29.89,29.23-29.89s25.74,9.72,26.17,29.89h-55.4ZM1207.09,229.33c-28.58,0-48.47,20.11-48.47,57.15s18.4,55.41,48.47,55.41c24.69,0,40.26-14.05,44.14-35.3l-16.45-4.32c-2.79,18.19-12.56,24.48-25.95,24.48-21.42,0-30.93-15.79-31.59-40.06h74.21v-6.07c0-37.87-20.56-51.3-44.37-51.3M1481.65,229.33c-29.67,0-49.77,20.76-49.77,57.37s19.67,55.2,48.89,55.2c26.4,0,41.31-16.23,44.37-38.52l-17.11-4.1c-3,20.33-11.69,27.27-25.95,27.27-20.76,0-31.37-15.14-31.37-41.14s11.26-40.71,30.5-40.71c13.61,0,23.59,6.72,26.82,25.96l17.11-4.1c-3.06-22.08-17.98-37.22-43.5-37.22M1637.87,229.33c-15.36,0-25.95,7.37-30.32,18.85v-16.67h-17.97v108.21h17.97v-71.21c0-15.14,7.59-25.31,23.6-25.31s23.38,10.17,23.38,25.31v71.21h17.98v-74.87c0-20.33-12.79-35.51-34.64-35.51M1714.47,273.92c2.4-19.07,12.13-29.89,29.23-29.89s25.74,9.72,26.17,29.89h-55.4ZM1743.7,229.33c-28.57,0-48.47,20.11-48.47,57.15s18.41,55.41,48.47,55.41c24.69,0,40.26-14.05,44.15-35.3l-16.45-4.32c-2.84,18.19-12.56,24.48-25.95,24.48-21.42,0-30.93-15.79-31.59-40.06h74.24v-6.07c0-37.87-20.55-51.3-44.37-51.3M627.12,201.19l-17.97,4.32v25.96h-20.76v13.88h20.76v66.23c0,17.76,8.42,30.29,29.66,30.29,10.6,0,19.68-3.45,23.17-6.72l-4.98-13.01s-6.49,4.54-15.78,4.54-14.04-5.84-14.04-17.98v-63.44h32.01v-13.87h-32.01v-30.28M26.73,188.1H7.89v151.49h18.84v-151.49ZM1133.89,188.1h-28.58l-44.8,122.08-45.02-122.08h-29.88v151.49h18.84v-130.5l48.25,130.5h14.49l47.8-130.72v130.72h18.85v-151.32M1318.15,326.58c-17.75,0-29.66-12.78-29.66-40.93s11.91-40.93,29.66-40.93,29.67,12.56,29.67,40.93-11.92,40.93-29.67,40.93M1365.31,188.27h-17.98v64.05c-3.88-11.91-13.43-22.95-32.24-22.95-24.25,0-45.45,19.07-45.45,56.94s21.2,55.63,43.93,55.63c17.1,0,29.66-9.95,33.76-24.04v8.24c0,4.97.44,10.39,1.1,13.65h18.19c-.87-5.19-1.31-12.78-1.31-22.51v-129.02ZM688.28,185.04c-7.16,0-12.79,5.63-12.79,12.79s5.63,12.56,12.79,12.56,12.56-5.41,12.56-12.56-5.41-12.79-12.56-12.79M1400.34,185.04c-7.16,0-12.78,5.63-12.78,12.79s5.62,12.56,12.78,12.56,12.56-5.41,12.56-12.56-5.41-12.79-12.56-12.79M1554.81,185.04c-7.16,0-12.78,5.63-12.78,12.79s5.62,12.56,12.78,12.56,12.56-5.41,12.56-12.56-5.41-12.79-12.56-12.79"/>
  <path class="cls-1" d="M168.35,145.3c-16.66,0-25.95-15.79-25.95-44.37s9.29-44.37,25.95-44.37,25.95,15.58,25.95,44.37-9.29,44.37-25.95,44.37M168.35,44.64c-33.99,0-52.79,25.3-52.79,56.28s18.85,56.28,52.79,56.28,52.79-25.31,52.79-56.28-18.85-56.28-52.79-56.28M404.39,44.64c-16,0-24.86,6.94-29.88,15.79h-1.31v-13.61h-25.53v108.2h25.53v-69.93c0-16.02,8.24-25.31,21.42-25.31s18.4,8.46,18.4,21.2v74.04h25.53v-74.26c0-22.3-11.69-36.12-34.21-36.12M496.52,44.64c-23.6,0-41.31,9.94-41.31,31.15,0,17.98,12.34,27.7,26.17,31.15l21.63,5.42c11.47,2.84,16.67,6.94,16.67,16.01,0,11.04-7.81,17.32-21.42,17.32-14.7,0-22.29-7.16-24.65-25.09l-22.94,6.5c1.31,18.63,18.62,30.06,44.8,30.06,29.23,0,45.02-13.62,45.02-35.3,0-20.33-14.05-28.79-28.79-32.46l-20.76-5.2c-10.39-2.62-14.92-7.37-14.92-14.27,0-8.64,7.37-13.83,18.41-13.83,13,0,20.98,7.16,22.07,20.76l21.64-6.49c-2.61-15.14-17.53-25.74-41.57-25.74M603.88,145.3c-16.66,0-25.95-15.79-25.95-44.37s9.29-44.37,25.95-44.37,25.96,15.58,25.96,44.37-9.3,44.37-25.96,44.37M603.88,44.64c-33.98,0-52.78,25.3-52.78,56.28s18.84,56.28,52.78,56.28,52.79-25.31,52.79-56.28-18.84-56.28-52.79-56.28M728.51,44.64c-16.01,0-24.86,6.94-29.84,15.79h-1.31v-13.61h-25.52v108.2h25.52v-69.93c0-16.02,8.24-25.31,21.42-25.31s18.41,8.46,18.41,21.2v74.04h25.52v-74.26c0-22.3-11.69-36.12-34.2-36.12M1107.82,145.3c-16.66,0-25.96-15.79-25.96-44.37s9.3-44.37,25.96-44.37,25.95,15.58,25.95,44.37-9.29,44.37-25.95,44.37M1107.82,44.64c-33.98,0-52.79,25.3-52.79,56.28s18.85,56.28,52.79,56.28,52.79-25.31,52.79-56.28-18.85-56.28-52.79-56.28M1343.86,44.64c-16.02,0-24.92,6.94-29.89,15.79h-1.31v-13.61h-25.53v108.2h25.53v-69.93c0-16.02,8.24-25.31,21.42-25.31s18.4,8.46,18.4,21.2v74.04h25.53v-74.26c0-22.3-11.69-36.12-34.2-36.12M1435.99,44.64c-23.6,0-41.31,9.94-41.31,31.15,0,17.98,12.34,27.7,26.17,31.15l21.63,5.42c11.47,2.84,16.67,6.94,16.67,16.01,0,11.04-7.77,17.32-21.43,17.32-14.7,0-22.29-7.16-24.65-25.09l-22.94,6.5c1.31,18.63,18.62,30.06,44.8,30.06,29.23,0,45.02-13.62,45.02-35.3,0-20.33-14.04-28.79-28.79-32.46l-20.76-5.2c-10.39-2.62-14.92-7.37-14.92-14.27,0-8.64,7.37-13.83,18.41-13.83,13,0,20.98,7.16,22.07,20.76l21.63-6.49c-2.57-15.14-17.53-25.74-41.53-25.74M1543.39,145.3c-16.65,0-25.95-15.79-25.95-44.37s9.3-44.37,25.95-44.37,25.96,15.58,25.96,44.37-9.3,44.37-25.96,44.37M1543.39,44.64c-33.98,0-52.78,25.3-52.78,56.28s18.84,56.28,52.78,56.28,52.79-25.31,52.79-56.28-18.84-56.28-52.79-56.28M1668.02,44.64c-16.01,0-24.86,6.94-29.88,15.79h-1.31v-13.61h-25.52v108.2h25.52v-69.93c0-16.02,8.25-25.31,21.42-25.31s18.4,8.46,18.4,21.2v74.04h25.52v-74.26c0-22.3-11.69-36.12-34.2-36.12M100.42,3.5h-26.82v111.91c0,18.19-6.94,29.01-23.38,29.01s-23.38-11.47-23.38-31.15v-20.76L0,99.22v9.3c0,28.36,14.05,50,50.22,50s50.21-21.63,50.21-50V3.5ZM261.83,3.5h-25.52v151.53h25.52v-69.93c0-16.02,8.24-25.31,21.42-25.31s18.41,8.46,18.41,21.2v74.04h25.52v-74.26c0-22.3-11.69-36.12-34.21-36.12-16.01,0-24.86,6.94-29.88,15.79h-1.31V3.5M1039.85,3.5h-26.82v111.91c0,18.19-6.94,29.01-23.39,29.01s-23.38-11.47-23.38-31.15v-20.76l-26.83,6.71v9.3c0,28.36,14.05,50,50.21,50s50.22-21.63,50.22-50V3.5ZM1201.25,3.5h-25.52v151.53h25.52v-69.93c0-16.02,8.25-25.31,21.43-25.31s18.4,8.46,18.4,21.2v74.04h25.53v-74.26c0-22.3-11.7-36.12-34.2-36.12-16.01,0-24.87,6.94-29.84,15.79h-1.31V3.5ZM846.86,142.68c-20.76,0-33.54-16.88-33.54-34.86,0-11.26,4.97-21.64,13.22-27.49l48.9,53.45c-9.07,5.41-19.24,8.85-28.57,8.85M894.45,116.02l-42.4-46.78c7.59-3.01,14.92-4.1,20.98-4.1,17.53,0,28.36,10.17,28.36,27.7,0,7.82-2.18,15.8-6.94,23.17M846.21,63l-9.3-10.38c-8.2-9.07-10.6-14.7-10.6-21.43,0-12.56,8.03-19.68,20.55-19.68s20.33,7.37,20.33,20.77c0,12.34-6.07,24.04-20.98,30.71M847.52.05c-29.88,0-44.58,16.66-44.58,37.44,0,11.26,4.75,22.51,17.32,36.12l.22.44c-21.2,10.17-30.92,26.62-30.92,43.5,0,22.3,17.1,40.93,43.5,40.93,15.13,0,32.89-6.28,48.89-17.54l13.01,14.05h33.98v-1.09l-27.7-30.5c11.69-13.88,18.41-29.02,18.41-42.19,0-16.45-11.04-27.49-28.35-27.49-9.07,0-19.28,2.62-25.95,5.19l-.44-.87c16.45-8.85,23.38-17.1,23.38-28.57,0-16.45-14.7-29.46-40.7-29.46"/>
</svg>